<svg xmlns="http://www.w3.org/2000/svg" width="2500" height="829" viewBox="0 0 2500 829">
  <defs>
    <style>
      .cls-1 {
        fill-rule: evenodd;
      }
    </style>
  </defs>
  <g id="Artboard_1" data-name="Artboard 1">
    <path id="Color_Fill_1" data-name="Color Fill 1" class="cls-1" d="M1144.37,414c0-70.5-102.5-78-102.5-99,0-16.5,17.5-17.5,30-17.5,16.5,0,25,11,37.5,19.5l21.5-56.5-29-55c-57,5.5-110.5,1-110.5,77,0,45.5,2.5,69.5,47,88,16,7,38,11.5,51,22.5-11,7-23,11-36.5,11-42.5,0-57.5-18.5-91-45l-36,35,23,45.5c22.5,15.5,87,48,113.5,48C1101.87,487.5,1144.37,456,1144.37,414Zm-11.5,7c0,36.5-35.5,53.5-68,53.5-32,0-75.5-17.5-99-39.5l8-28.5c20.5,18.5,62.5,46,90.5,46,20,0,45-17.5,45-39.5,0-18-23.5-31.5-37-40-31.5-20-67-5.5-67-59,0-36,32.5-64.5,68-64.5,16,0,30.5,8,44.5,15l-11.5,39.5c-12-7.5-23.5-19-38.5-19-18,0-34.5,16.5-34.5,34.5C1033.37,349.5,1132.87,340,1132.87,421Zm297-142.5-25-48h-66l-17,57.5c-4.5,27.5-2.5,53.5-5.5,81.5-2,22-9,35.5-15,41.5-5.5,6-11.5,5.5-11-3,1.5-11-1-13,0-32l7.5-104.5-25-47-59,7c-5.5,55-8.5,85.5-8,150.5,0.5,25.5,6.5,43.5,24.5,62.5,14.5,15,23.5,20.5,45.5,26,12.5,3.5,21.5,6.5,30.5,8.5s18.5,2.5,32,.5a46.45,46.45,0,0,0,28-15c7.5-8,13.5-18,19-28,7.5-12,9.5-22.5,10.5-34,1-11,1-22.5,3.5-36.5l1-38.5,28.5-10Zm-8,34-33.5,3c4,27.5,1.5,43.5,1.5,72.5s-8.5,47.5-29.5,68c-17.5,17-38,14-61.5,9.5-20-3.5-29.5-8-35-14.5a31.241,31.241,0,0,1-5-11c-1.5-4.5-2-9-3.5-14-4.5-15.5-6-26.5-6-39-0.5-12.5,0-26,0-47V280h36.5c-1.5,38.5-6.5,75.5-4.5,118,1,20,8,38,27,43.5,21.5,6,40-9.5,48-30.5,5.5-15.5,6.5-31,7-45.5,0-7,0-14,.5-20.5a89.62,89.62,0,0,1,1.5-17l9-46,46,4.5Zm243.49,10c-20-105.5-71.5-128-169.5-119l-1.5,184.5c-0.5,73.5-4.5,171-4.5,172.5s20,26,36,37.5l45-5.5,14.5-154.5C1637.86,421.5,1676.86,383.5,1665.36,322.5Zm-10-1c9,53-15.5,95-79,106L1562.86,583l-31.5,3,1.5-98.5,6-126,4.5-108C1615.36,230,1643.86,253,1655.36,321.5Zm-27.5,11.5c-1.5-26.5-29.5-45.5-55.5-39l3,87.5C1594.86,384.5,1629.86,368.5,1627.86,333Zm-22.5-17c-2,7.5-13.5,17.5-22,20V307.5C1590.36,304.5,1607.36,308.5,1605.36,316Zm394.5,23c1.5-33.5-2.5-57-23-82-30.5-38-31-36.5-52.5-42.5-35-9.5-64-4.5-90.5,3-30.5,9-36,13-64,35-29.5,23-45.5,49-47.5,88-1.5,40,13.5,65,42,93.5,29.5,29.5,57,40,98.5,42,32,1,53.5-1.5,80-19,22-15,26-32.5,43-53.5l-16.5-34-44.5-4c-11,21-21.5,31-43,40.5-20.5,9.5-36.5,9.5-57,5l-12.5-16-6.5-16.5,1.5-35.5,102.5,1Zm-11.5-12.5-100,6h-90.5c0,31-9,50.5,8,76,16,23.5,33,34.5,61,37,33,3,58-9.5,76-37l26.5,4c-14,14.5-18.5,26-35.5,36.5-20,13-35.5,16.5-59.5,16.5-28.5.5-47.5-3-71-20-36.5-27.5-47.5-67-36.5-111.5,10.5-42,36-70.5,78.5-80,31-6.5,28-6,85,1.5C1965.36,260,1987.36,286.5,1988.36,326.5Zm-50.5-15c-13.5-22.5-33-37.5-59.5-38.5-27-1-57.5,17-66.5,40.5l59,1.5Zm-48.5-23h-43s10.5-5,17.5-6c9.5-1.5,24,1,24,1Zm359.49-25-28.5-46.5c-17.5-2-28-1-45.5,3-16.5,4-24.5,10.5-40,17.5l-29.5-36.5-45,21.5,9,119-4.5,100.5,39,33,58.5,8-4-64.5,3-68c6-33,15.5-36,35-36.5,16.5,0,27.5-3,41,6.5Zm-10,11.5-7.5,31.5c-18-1.5-26-6.5-41-2-20.5,6-32,17.5-39,38l-2,129.5c-15.5,1.5-38-6-38-6.5,0-1-4-68.5-4-69,0-1,1-39,1-64V261l20.5-6.5,5,49c14.5-19,28.5-28.5,52.5-33.5C2206.35,266,2219.85,267,2238.85,275ZM678.124,722.5c-20-105.5-71.5-128-169.5-119l-1.5,184.5c-0.5,73.5-4.5,171-4.5,172.5s20,26,36,37.5l45-5.5,14.5-154.5C650.624,821.5,689.624,783.5,678.124,722.5Zm-10-1c9,53-15.5,95-79,106L575.624,983l-31.5,3,1.5-98.5,6-126,4.5-108C628.124,630,656.624,653,668.124,721.5Zm-27.5,11.5c-1.5-26.5-29.5-45.5-55.5-39l3,87.5C607.624,784.5,642.624,768.5,640.624,733Zm-22.5-17c-2,7.5-13.5,17.5-22,20V707.5C603.124,704.5,620.124,708.5,618.124,716Zm304.993-52.5-28.5-46.5c-17.5-2-28-1-45.5,3-16.5,4-24.5,10.5-40,17.5l-29.5-36.5-45,21.5,9,119-4.5,100.5,39,33,58.5,8-4-64.5,3-68c6-33,15.5-36,35-36.5,16.5,0,27.5-3,41,6.5Zm-10,11.5-7.5,31.5c-18-1.5-26-6.5-41-2-20.5,6-32,17.5-39,38l-2,129.5c-15.5,1.5-38-6-38-6.5,0-1-4-68.5-4-69,0-1,1-39,1-64V661l20.5-6.5,5,49c14.5-19,28.5-28.5,52.5-33.5C880.617,666,894.117,667,913.117,675Zm337.493,64c1.5-33.5-2.5-57-23-82-30.5-38-31-36.5-52.5-42.5-35-9.5-64-4.5-90.5,3-30.5,9-36,13-64,35-29.5,23-45.495,49-47.495,88-1.5,40,13.5,65,42,93.5,29.5,29.5,57,40,98.5,42,32,1,53.5-1.5,80-19,22-15,26-32.5,43-53.5l-16.5-34-44.5-4c-11,21-21.5,31-43,40.5-20.5,9.5-36.5,9.5-57,5l-12.5-16-6.5-16.5,1.5-35.5,102.5,1Zm-11.5-12.5-100,6h-90.5c0,31-9,50.5,8,76,16,23.5,33,34.5,61,37,33,3,58-9.5,76-37l26.5,4c-14,14.5-18.5,26-35.5,36.5-20,13-35.5,16.5-59.5,16.5-28.5.5-47.5-3-71-20-36.5-27.5-47.5-67-36.5-111.5,10.5-42,36-70.5,78.5-80,31-6.5,28-6,85,1.5C1216.11,660,1238.11,686.5,1239.11,726.5Zm-50.5-15c-13.5-22.5-33-37.5-59.5-38.5-27-1-57.5,17-66.5,40.5l59,1.5Zm-48.5-23h-43s10.5-5,17.5-6c9.5-1.5,24,1,24,1Zm362,137-40-41h-9.5v-76l45-3.5V665l-17-29.5-25-8V580l-22-35.5-50,2-9.5,81.5-67.5,2.5-8,38.5,32,37,31.5,4c-4.5,42-4,74-2.5,115.5,0.5,24,16.5,35.5,37,46.5,18,9.5,32.5,5,53,6.5l51-5.5Zm-9.5,37.5c-19,5.5-35,3.5-57.5,4-31.5,1.5-31-12-32.5-34.5-2-24.5-3.5-30.5-3.5-55.5l1.5-76-58.5-2.5,1.5-26.5,37,2,34.5-1v-0.5l2-80.5h28.5l1.5,74.5,38.5,4,2.5,26.5-43.5,3.5-4,90.5c2.5,13.5-5,30.5,6.5,37.5,12.5,8,33.5,2,44,4Zm337.5-124c1.5-33.5-2.5-57-23-82-30.5-38-31-36.5-52.5-42.5-35-9.5-64-4.5-90.5,3-30.5,9-36,13-64,35-29.5,23-45.5,49-47.5,88-1.5,40,13.5,65,42,93.5,29.5,29.5,57,40,98.5,42,32,1,53.5-1.5,80-19,22-15,26-32.5,43-53.5l-16.5-34-44.5-4c-11,21-21.5,31-43,40.5-20.5,9.5-36.5,9.5-57,5l-12.5-16-6.5-16.5,1.5-35.5,102.5,1Zm-11.5-12.5-100,6h-90.5c0,31-9,50.5,8,76,16,23.5,33,34.5,61,37,33,3,58-9.5,76-37l26.5,4c-14,14.5-18.5,26-35.5,36.5-20,13-35.5,16.5-59.5,16.5-28.5.5-47.5-3-71-20-36.5-27.5-47.5-67-36.5-111.5,10.5-42,36-70.5,78.5-80,31-6.5,28-6,85,1.5C1795.61,660,1817.61,686.5,1818.61,726.5Zm-50.5-15c-13.5-22.5-33-37.5-59.5-38.5-27-1-57.5,17-66.5,40.5l59,1.5Zm-48.5-23h-43s10.5-5,17.5-6c9.5-1.5,24,1,24,1Zm402,130.5c-1-15-3-30-4-48-1.5-25-8-42.5-18-67l-32-40c-23.5-15-27.5-17-46.5-19-26.5-3.5-54-2-70,11.5l-22-25-40,14.5,7,48,1,52-4.5,106,30,23h34c3-24,1.5-62,7-94,5-31.5,16.5-57,45-56,23.5,1,36.5,35,39.5,56l-1.5,75.5,33.5,18.5,39.5-5A226.938,226.938,0,0,0,2121.61,819Zm-7.5,43-28.5,4-7-106.5c-2-25.5-31-44-58.5-45.5-27-1.5-48.5,17-57.5,37.5-8,19-10,38.5-11.5,58-1,19-.5,38.5-2.5,56l-22.5-1V797l1-66,2.5-56.5,15.5-4,2.5,35.5c20.5-23.5,42-30,72.5-29,31,1,49.5,12,68.5,35,18,22,21.5,53.5,22,70ZM2360.1,540.5l-29-38.5-48.5,11.5-8.5,57-2.5,57.5c-21.5,14.5-38.5,18.5-56,38.5-26.5,31.5-39.5,82.5-31,123s31.5,64,70,80c35.5,14,62.5,10,97.5-3l2-135.5,3-123Zm-10.5,8.5-2,74.5-4,87.5V856.5c-22,4-34.5,13.5-57,10-25-4-44-9.5-59-31s-14-64-8.5-89c6.5-27.5,15-45,41.5-54.5,20.5-7,39.5-16,57-1l3-57.5,5-77Zm-43.5,292-1.5-115c-17.5-1-23.5-5-40.5-1-20,4.5-31,47-31,67,0,23,6,44,36,52C2283.6,848,2291.6,846,2306.1,841Zm-40-106c1,2-3,50.5-3.5,63.5L2244.1,814l-1.5-8.5c-2-9,0-21,0-22s6-36,11-41.5C2257.1,737,2265.1,733,2266.1,735Zm413.5,23.5c-6.5-68-51-134-125-138-75.5-4.5-140.5,55-143,126-2.5,79.5,56.5,113,145.5,132.5C2622.1,893.5,2686.6,825,2679.6,758.5Zm-12,6c-0.5,57.5-40,109-98,107-57.5-1.5-109.5-55.5-107-113.5,3-57,50.5-113,103.5-101C2626.1,670.5,2668.6,693.5,2667.6,764.5Zm-32-2c0.5-41.5-43-63.5-83-66-32-2-55,27.5-57.5,59.5-3.5,39.5,30.5,71,71,67C2603.6,819.5,2635.1,800,2635.6,762.5Zm-40.5-3.5c-1.5,36-18,56-49,53-26.5-2-42-28.5-40-55,1.5-25.5,19.5-50.5,45.5-48.5C2577.1,710,2596.6,720,2595.1,759Z" transform="translate(-342 -176)"/>
  </g>
</svg>
